PathFileType  4	(X/Y/Z) C:\Users\antoi\Documents\MyRepositories\mobilecap\ResultsAnalysis
DataRate	CameraRate	NumFrames	NumMarkers	Units	OrigDataRate	OrigDataStartFrame	OrigNumFrames
100.0	100.0	4	51	mm	100.0	84	134
Frame#	Time	r_knee			r_shank_antsup			r_ankle			r_calc			r_5meta			r_toe			L_knee			L_shank_antsup			L_ankle			L_calc			L_5meta			L_toe			r_sh2			r_sh3			r_sh4			L_sh2			L_sh3			r_thigh1			r_thigh2			r_thigh3			r_thigh4			r_thigh5			L_thigh1			L_thigh2			L_thigh3			L_thigh4			r.ASIS			r.PSIS			L.ASIS			L.PSIS			C7			R_Shoulder			L_Shoulder			R_Sternum			L_Sternum			R_humerus			R_elbow_med			R_elbow_lat			R_forearm			R_wrist_radius			R_wrist_ulna			L_humerus			L_elbow_med			L_elbow_lat			L_forearm			L_wrist_radius			L_wrist_ulna			R_HJC			L_HJC			R_HJC_reg			L_HJC_reg			
		X1	Y1	Z1	X2	Y2	Z2	X3	Y3	Z3	X4	Y4	Z4	X5	Y5	Z5	X6	Y6	Z6	X7	Y7	Z7	X8	Y8	Z8	X9	Y9	Z9	X10	Y10	Z10	X11	Y11	Z11	X12	Y12	Z12	X13	Y13	Z13	X14	Y14	Z14	X15	Y15	Z15	X16	Y16	Z16	X17	Y17	Z17	X18	Y18	Z18	X19	Y19	Z19	X20	Y20	Z20	X21	Y21	Z21	X22	Y22	Z22	X23	Y23	Z23	X24	Y24	Z24	X25	Y25	Z25	X26	Y26	Z26	X27	Y27	Z27	X28	Y28	Z28	X29	Y29	Z29	X30	Y30	Z30	X31	Y31	Z31	X32	Y32	Z32	X33	Y33	Z33	X34	Y34	Z34	X35	Y35	Z35	X36	Y36	Z36	X37	Y37	Z37	X38	Y38	Z38	X39	Y39	Z39	X40	Y40	Z40	X41	Y41	Z41	X42	Y42	Z42	X43	Y43	Z43	X44	Y44	Z44	X45	Y45	Z45	X46	Y46	Z46	X47	Y47	Z47	X48	Y48	Z48	X49	Y49	Z49	X50	Y50	Z50	X51	Y51	Z51	

84	0.83000000	1021.70670	511.60451	-13.42579	1023.79063	432.01554	-29.47899	751.13703	228.06802	-37.33398	681.74588	249.91143	-77.88797	785.54956	112.64075	-5.78426	842.09424	101.46843	-57.81839	943.91502	494.74457	-290.37975	971.26175	395.81170	-279.74203	868.69426	100.61137	-260.79879	784.81345	65.77327	-236.02443	975.18476	40.95078	-263.80174	997.76292	63.09874	-197.43972	931.53685	363.45806	-7.25248	973.36477	492.39312	-4.03067	885.59803	421.87258	-4.80369	888.18513	413.99637	-311.61767	873.46732	292.68308	-311.08483	968.85769	824.64055	-0.81131	1007.43502	716.86356	2.37736	956.20570	677.34853	20.77280	861.21921	785.49806	-0.78270	904.27484	674.52286	-4.12022	962.85652	759.49725	-354.92338	978.04111	627.43191	-317.34879	849.31944	746.74335	-345.75728	869.43168	611.10727	-314.71244	950.00349	972.57021	-45.23429	771.44732	1003.77827	-148.15423	988.80913	961.93545	-292.69865	777.04614	1011.18203	-249.09355	762.59264	1415.83043	-219.52662	854.08121	1395.74096	-33.87257	860.01614	1385.86212	-388.31118	901.73436	1396.10839	-186.33910	910.77243	1395.55769	-228.19820	896.04703	1271.10451	34.38786	888.23965	1049.32000	17.33735	916.13710	1076.55346	77.34875	1032.68251	992.68598	64.31908	1118.31291	888.22257	53.88814	1106.76365	876.08264	85.77507	894.14594	1272.87290	-448.18951	815.41062	1043.42063	-431.46567	871.23335	1062.25971	-483.84200	922.42236	963.02521	-440.44800	950.34710	807.28172	-425.38218	959.36089	813.38682	-459.32879	878.44650	890.28099	-78.08347	906.70499	888.42290	-282.59681	895.81784	883.15414	-88.80405	904.95283	895.23746	-253.57507	
85	0.84000000	1041.28910	515.80857	-15.66560	1045.99669	436.71716	-31.42385	782.46168	220.23147	-36.27513	711.38933	238.69368	-75.77122	823.12203	106.61431	-5.53278	879.52013	98.61846	-58.32239	946.03572	495.01008	-291.11569	972.61357	395.89494	-280.50046	868.87412	100.89524	-260.77940	785.08083	65.97905	-235.92905	975.23442	40.91887	-263.82193	997.90286	63.01778	-197.47576	956.80763	363.99917	-8.28898	993.05789	494.68641	-5.93257	908.47098	420.41599	-5.38623	889.63174	414.47754	-312.01152	874.28053	293.25165	-311.34298	983.57923	828.15596	-1.51852	1023.24894	721.32793	1.20357	973.29796	680.84231	20.63383	876.13655	787.38843	0.84095	921.03399	677.20518	-3.10945	969.23511	759.38098	-355.34443	982.40907	627.25912	-317.95653	855.92619	748.64268	-345.18417	873.55451	612.79914	-314.50125	962.07093	974.81971	-46.36447	782.40719	1005.30372	-146.84767	998.24927	962.78507	-294.21142	786.93378	1012.16121	-247.81305	773.62196	1417.29867	-220.20364	864.39850	1397.13060	-34.38234	870.73630	1387.12200	-388.83943	912.41650	1397.38299	-186.83406	921.50576	1396.88629	-228.70977	905.03945	1272.40890	34.66554	895.43867	1050.60038	18.33641	923.03264	1077.85496	78.50291	1038.90713	992.87715	66.57988	1123.50341	887.53584	57.00360	1111.90264	875.68034	89.02584	905.64219	1274.47371	-448.67287	830.82109	1043.65957	-431.47964	886.00264	1063.47105	-484.28968	939.50535	965.43721	-440.92912	971.03017	810.46964	-425.31870	979.37141	816.43263	-459.39296	890.43647	892.24771	-77.67556	916.11582	889.32374	-282.51421	907.50301	885.07061	-88.88442	914.89316	896.27156	-253.83819	
86	0.85000000	1060.29636	519.66696	-17.90668	1067.65163	441.09154	-33.49301	814.40718	211.80553	-35.50507	741.85397	226.69694	-73.94940	861.32747	100.43617	-5.56388	917.45829	95.68337	-59.05058	948.17583	495.25316	-291.76568	973.94465	395.97246	-281.19013	869.07153	101.21448	-260.73096	785.36621	66.23905	-235.81799	975.27665	40.89336	-263.83117	998.05982	62.94594	-197.50092	982.02323	364.13251	-9.47626	1012.15731	496.39113	-7.61957	931.17874	418.26870	-5.88004	891.05311	414.96303	-312.33922	875.07779	293.82554	-311.54340	998.29239	831.44334	-2.33058	1039.01279	725.42288	-0.20692	990.26786	684.18543	20.45580	891.05622	789.20202	2.61209	937.62836	679.87913	-1.99949	975.58148	759.24195	-355.66532	986.70738	627.05654	-318.43169	862.43362	750.46847	-344.50975	877.68819	614.44308	-314.20210	974.18985	976.78255	-47.50908	793.41458	1006.70220	-145.41727	1007.59052	963.39016	-295.71997	796.82807	1013.02627	-246.39858	784.63226	1418.58923	-220.83755	874.77684	1398.32633	-34.89689	881.35614	1388.21209	-389.38106	923.10336	1398.48685	-187.37609	932.21175	1398.04785	-229.26929	914.00290	1273.52901	34.96782	902.58199	1051.68620	19.43858	929.90725	1079.03363	79.72095	1045.03000	992.89007	68.84053	1128.54621	886.64908	60.10743	1116.91908	875.11200	92.31145	917.05026	1275.90562	-449.15954	846.19766	1043.78211	-431.31417	900.65589	1064.54115	-484.62635	956.56398	967.80962	-441.33868	991.47003	813.59135	-425.31705	999.30378	819.46640	-459.41990	902.43530	893.99212	-77.25509	925.41015	890.03638	-282.39592	919.15598	886.76838	-88.96338	924.73287	897.10680	-254.07535	
87	0.86000000	1078.69132	523.12507	-20.14017	1088.68220	445.09983	-35.69553	846.96447	202.92700	-35.05881	773.15674	214.01143	-72.49051	900.13898	94.27241	-5.84367	955.88571	92.80088	-59.96521	950.35374	495.45740	-292.32541	975.30250	396.03491	-281.79785	869.29220	101.56957	-260.66188	785.63824	66.56289	-235.69397	975.31046	40.86999	-263.83072	998.24026	62.88802	-197.51564	1007.17710	363.89096	-10.86192	1030.65981	497.47638	-9.10824	953.73495	415.44828	-6.31747	892.48879	415.44074	-312.60857	875.89258	294.39578	-311.69349	1012.89649	834.49483	-3.26722	1054.70922	729.13162	-1.89218	1007.09104	687.35824	20.20992	905.99510	790.92958	4.43096	954.05180	682.50978	-0.83522	981.85807	759.05170	-355.89358	990.97276	626.80744	-318.76650	868.79349	752.22334	-343.76031	881.83856	616.02585	-313.80921	986.33484	978.47259	-48.68261	804.47705	1007.97343	-143.90773	1016.86481	963.72461	-297.18443	806.75670	1013.78320	-244.89192	795.62616	1419.68211	-221.43218	885.25439	1399.31171	-35.41368	891.88157	1389.10170	-389.93440	933.81936	1399.38886	-187.95813	942.89974	1399.00101	-229.87560	922.97871	1274.44950	35.28205	909.66932	1052.58953	20.61911	936.76054	1080.05151	80.97844	1051.06336	992.70283	71.10444	1133.47576	885.55445	63.20283	1121.81178	874.34742	95.61089	928.37384	1277.12981	-449.65418	861.54699	1043.76593	-430.98525	915.21294	1065.43708	-484.85206	973.56316	970.10130	-441.67207	1011.72882	816.64892	-425.33185	1019.12448	822.44921	-459.39682	914.42072	895.52519	-76.82284	934.61623	890.54430	-282.23274	930.77460	888.24161	-89.06064	934.50206	897.74607	-254.27622	
